<svg xmlns="http://www.w3.org/2000/svg" viewBox="0 0 128 128">
  <defs>
    <linearGradient id="grad-dark" x1="0%" y1="0%" x2="100%" y2="100%">
      <stop offset="0%" style="stop-color:#60a5fa;stop-opacity:1" />
      <stop offset="100%" style="stop-color:#a78bfa;stop-opacity:1" />
    </linearGradient>
  </defs>
  <!-- Background circle -->
  <circle cx="64" cy="64" r="60" fill="url(#grad-dark)"/>
  <!-- B letter -->
  <path d="M40 30 L40 98 L70 98 Q95 98 95 78 Q95 64 78 60 Q90 56 90 44 Q90 30 70 30 Z M55 45 L70 45 Q75 45 75 50 Q75 55 70 55 L55 55 Z M55 70 L70 70 Q80 70 80 78 Q80 85 70 85 L55 85 Z" fill="#1e1e2e"/>
  <!-- Contract verification mark -->
  <circle cx="100" cy="28" r="16" fill="#4ade80"/>
  <path d="M92 28 L98 34 L108 22" stroke="#1e1e2e" stroke-width="3" fill="none" stroke-linecap="round" stroke-linejoin="round"/>
</svg>
